<?xml version="1.0" encoding="UTF-8"?>
<svg width="309px" height="171px" viewBox="0 0 309 171" version="1.1" xmlns="http://www.w3.org/2000/svg" xmlns:xlink="http://www.w3.org/1999/xlink">
    <title>star-fall-svgrepo-com copy</title>
    <g id="Starkit" stroke="none" stroke-width="1" fill="none" fill-rule="evenodd">
        <g id="starkit" transform="translate(-101, -171)" fill="#B9B9B9" fill-rule="nonzero">
            <g id="star-fall-svgrepo-com-copy" transform="translate(101, 171)">
                <path d="M51.6944839,30.7176071 C51.8242377,27.6857232 56.8459824,26.4790444 58.3367697,29.1243493 C65.3296666,41.5418195 77.2614868,59.8049165 90.7972836,68.1080814 C104.335841,76.4112463 126.018515,78.766617 140.255534,79.371337 C143.286801,79.5011171 144.490474,84.523883 141.845707,86.0149735 C129.430761,93.0092923 111.174138,104.943539 102.872661,118.482088 C94.5711842,132.023398 92.2162923,153.710481 91.6116952,167.950395 C91.4819415,170.982279 86.4574361,172.186196 84.9694094,169.540891 C77.9737518,157.123421 66.0446924,138.863086 52.5061348,130.559921 C38.9697858,122.256756 17.2871122,119.901385 3.05092135,119.296665 C0.0179973357,119.166885 -1.18622755,114.141358 1.45853962,112.653029 C13.8732092,105.655949 32.1314891,93.7244635 40.433242,80.1831529 C48.734995,66.6446037 51.0898869,44.9575211 51.6944839,30.7176071 Z" id="Path"></path>
                <path d="M278.49017,3.10205931 C278.255509,0.0756979102 272.960453,-1.19449027 271.378562,1.39835039 C266.621846,9.19896258 259.761464,18.6121615 252.139124,23.2897676 C244.514022,27.9673736 233.012874,29.8119077 223.905268,30.5160338 C220.879522,30.7507425 219.609592,36.0468749 222.201905,37.6290876 C230.000932,42.3867707 239.412217,49.2457869 244.088872,56.8724385 C248.765527,64.4990902 250.609686,76.0025771 251.313669,85.1120353 C251.54833,88.1383967 256.843386,89.4085849 258.425277,86.8157443 C263.181993,79.0151321 270.039614,69.6019331 277.664716,64.9243271 C285.289817,60.2467211 296.790965,58.4021869 305.898571,57.6980609 C308.924317,57.4633522 310.194247,52.1672197 307.601934,50.585007 C299.802908,45.8273239 290.391622,38.9655465 285.714967,31.3416561 C281.038312,23.7150045 279.194153,12.2115176 278.49017,3.10205931 Z" id="Path" opacity="0.5"></path>
            </g>
        </g>
    </g>
</svg>